<mxfile host="app.diagrams.net" agent="Mozilla/5.0 (Windows NT 10.0; Win64; x64) AppleWebKit/537.36 (KHTML, like Gecko) Chrome/139.0.0.0 Safari/537.36" version="28.2.0">
  <diagram name="Page-1" id="gzsm9pOCHeKzbYhIIp6z">
    <mxGraphModel dx="2985" dy="1070" grid="1" gridSize="10" guides="1" tooltips="1" connect="1" arrows="1" fold="1" page="1" pageScale="1" pageWidth="850" pageHeight="1100" math="0" shadow="0">
      <root>
        <mxCell id="0" />
        <mxCell id="1" parent="0" />
        <mxCell id="gV0S6WBN9MCvmeuUqXlB-1" value="Employee" style="rounded=0;whiteSpace=wrap;html=1;" vertex="1" parent="1">
          <mxGeometry x="365" y="540" width="120" height="60" as="geometry" />
        </mxCell>
        <mxCell id="gV0S6WBN9MCvmeuUqXlB-2" value="" style="endArrow=none;html=1;rounded=0;exitX=0.83;exitY=0.051;exitDx=0;exitDy=0;exitPerimeter=0;" edge="1" parent="1" source="gV0S6WBN9MCvmeuUqXlB-1" target="gV0S6WBN9MCvmeuUqXlB-3">
          <mxGeometry width="50" height="50" relative="1" as="geometry">
            <mxPoint x="490" y="550" as="sourcePoint" />
            <mxPoint x="475" y="510" as="targetPoint" />
          </mxGeometry>
        </mxCell>
        <mxCell id="gV0S6WBN9MCvmeuUqXlB-3" value="Name" style="ellipse;whiteSpace=wrap;html=1;" vertex="1" parent="1">
          <mxGeometry x="490" y="330" width="75" height="30" as="geometry" />
        </mxCell>
        <mxCell id="gV0S6WBN9MCvmeuUqXlB-4" value="&lt;u data--h-bstatus=&quot;0OBSERVED&quot;&gt;SSN&lt;/u&gt;" style="ellipse;whiteSpace=wrap;html=1;" vertex="1" parent="1">
          <mxGeometry x="400" y="325" width="75" height="30" as="geometry" />
        </mxCell>
        <mxCell id="gV0S6WBN9MCvmeuUqXlB-5" value="" style="endArrow=none;html=1;rounded=0;entryX=0.5;entryY=1;entryDx=0;entryDy=0;exitX=0.651;exitY=0.051;exitDx=0;exitDy=0;exitPerimeter=0;" edge="1" parent="1" source="gV0S6WBN9MCvmeuUqXlB-1" target="gV0S6WBN9MCvmeuUqXlB-4">
          <mxGeometry width="50" height="50" relative="1" as="geometry">
            <mxPoint x="390" y="550" as="sourcePoint" />
            <mxPoint x="494" y="509" as="targetPoint" />
          </mxGeometry>
        </mxCell>
        <mxCell id="gV0S6WBN9MCvmeuUqXlB-6" value="" style="endArrow=none;html=1;rounded=0;exitX=0;exitY=0;exitDx=0;exitDy=0;" edge="1" parent="1" source="gV0S6WBN9MCvmeuUqXlB-1" target="gV0S6WBN9MCvmeuUqXlB-7">
          <mxGeometry width="50" height="50" relative="1" as="geometry">
            <mxPoint x="390" y="550" as="sourcePoint" />
            <mxPoint x="250" y="470" as="targetPoint" />
          </mxGeometry>
        </mxCell>
        <mxCell id="gV0S6WBN9MCvmeuUqXlB-7" value="" style="ellipse;whiteSpace=wrap;html=1;" vertex="1" parent="1">
          <mxGeometry x="170" y="420" width="140" height="90" as="geometry" />
        </mxCell>
        <mxCell id="gV0S6WBN9MCvmeuUqXlB-8" value="Birth-Date" style="ellipse;whiteSpace=wrap;html=1;" vertex="1" parent="1">
          <mxGeometry x="177.5" y="426.25" width="125" height="77.5" as="geometry" />
        </mxCell>
        <mxCell id="gV0S6WBN9MCvmeuUqXlB-9" value="" style="endArrow=none;html=1;rounded=0;exitX=0.66;exitY=0.043;exitDx=0;exitDy=0;exitPerimeter=0;" edge="1" parent="1" source="gV0S6WBN9MCvmeuUqXlB-7" target="gV0S6WBN9MCvmeuUqXlB-10">
          <mxGeometry width="50" height="50" relative="1" as="geometry">
            <mxPoint x="210" y="490" as="sourcePoint" />
            <mxPoint x="262" y="350" as="targetPoint" />
          </mxGeometry>
        </mxCell>
        <mxCell id="gV0S6WBN9MCvmeuUqXlB-10" value="Year" style="ellipse;whiteSpace=wrap;html=1;" vertex="1" parent="1">
          <mxGeometry x="202" y="310" width="88" height="40" as="geometry" />
        </mxCell>
        <mxCell id="gV0S6WBN9MCvmeuUqXlB-11" value="" style="endArrow=none;html=1;rounded=0;entryX=0.406;entryY=0.013;entryDx=0;entryDy=0;entryPerimeter=0;exitX=0.58;exitY=0.922;exitDx=0;exitDy=0;exitPerimeter=0;" edge="1" parent="1" source="gV0S6WBN9MCvmeuUqXlB-12" target="gV0S6WBN9MCvmeuUqXlB-7">
          <mxGeometry width="50" height="50" relative="1" as="geometry">
            <mxPoint x="140" y="340" as="sourcePoint" />
            <mxPoint x="225" y="419" as="targetPoint" />
          </mxGeometry>
        </mxCell>
        <mxCell id="gV0S6WBN9MCvmeuUqXlB-12" value="Month" style="ellipse;whiteSpace=wrap;html=1;" vertex="1" parent="1">
          <mxGeometry x="120" y="305" width="62.5" height="50" as="geometry" />
        </mxCell>
        <mxCell id="gV0S6WBN9MCvmeuUqXlB-13" value="" style="endArrow=none;html=1;rounded=0;exitX=0.023;exitY=0.328;exitDx=0;exitDy=0;exitPerimeter=0;" edge="1" parent="1" source="gV0S6WBN9MCvmeuUqXlB-7" target="gV0S6WBN9MCvmeuUqXlB-14">
          <mxGeometry width="50" height="50" relative="1" as="geometry">
            <mxPoint x="210" y="490" as="sourcePoint" />
            <mxPoint x="90" y="380" as="targetPoint" />
          </mxGeometry>
        </mxCell>
        <mxCell id="gV0S6WBN9MCvmeuUqXlB-14" value="day" style="ellipse;whiteSpace=wrap;html=1;" vertex="1" parent="1">
          <mxGeometry x="30" y="370" width="50" height="50" as="geometry" />
        </mxCell>
        <mxCell id="gV0S6WBN9MCvmeuUqXlB-15" value="Departments" style="rounded=0;whiteSpace=wrap;html=1;" vertex="1" parent="1">
          <mxGeometry x="590" y="710" width="120" height="60" as="geometry" />
        </mxCell>
        <mxCell id="gV0S6WBN9MCvmeuUqXlB-17" value="" style="endArrow=none;html=1;rounded=0;entryX=0.435;entryY=0.965;entryDx=0;entryDy=0;entryPerimeter=0;exitX=0.648;exitY=0.025;exitDx=0;exitDy=0;exitPerimeter=0;" edge="1" parent="1" source="gV0S6WBN9MCvmeuUqXlB-18" target="gV0S6WBN9MCvmeuUqXlB-15">
          <mxGeometry width="50" height="50" relative="1" as="geometry">
            <mxPoint x="650" y="880" as="sourcePoint" />
            <mxPoint x="620" y="770" as="targetPoint" />
          </mxGeometry>
        </mxCell>
        <mxCell id="gV0S6WBN9MCvmeuUqXlB-18" value="DName" style="ellipse;whiteSpace=wrap;html=1;" vertex="1" parent="1">
          <mxGeometry x="460" y="860" width="120" height="80" as="geometry" />
        </mxCell>
        <mxCell id="gV0S6WBN9MCvmeuUqXlB-19" value="" style="endArrow=none;html=1;rounded=0;entryX=0.5;entryY=1;entryDx=0;entryDy=0;" edge="1" parent="1" target="gV0S6WBN9MCvmeuUqXlB-15">
          <mxGeometry width="50" height="50" relative="1" as="geometry">
            <mxPoint x="690" y="890" as="sourcePoint" />
            <mxPoint x="650" y="630" as="targetPoint" />
          </mxGeometry>
        </mxCell>
        <mxCell id="gV0S6WBN9MCvmeuUqXlB-20" value="&lt;u data--h-bstatus=&quot;0OBSERVED&quot;&gt;DNUM&lt;/u&gt;" style="ellipse;whiteSpace=wrap;html=1;" vertex="1" parent="1">
          <mxGeometry x="630" y="890" width="120" height="80" as="geometry" />
        </mxCell>
        <mxCell id="gV0S6WBN9MCvmeuUqXlB-21" value="" style="endArrow=none;html=1;rounded=0;exitX=1;exitY=1;exitDx=0;exitDy=0;" edge="1" parent="1" source="gV0S6WBN9MCvmeuUqXlB-15" target="gV0S6WBN9MCvmeuUqXlB-22">
          <mxGeometry width="50" height="50" relative="1" as="geometry">
            <mxPoint x="600" y="680" as="sourcePoint" />
            <mxPoint x="800" y="840" as="targetPoint" />
          </mxGeometry>
        </mxCell>
        <mxCell id="gV0S6WBN9MCvmeuUqXlB-22" value="Location" style="ellipse;whiteSpace=wrap;html=1;" vertex="1" parent="1">
          <mxGeometry x="740" y="800" width="100" height="80" as="geometry" />
        </mxCell>
        <mxCell id="gV0S6WBN9MCvmeuUqXlB-23" value="Projects" style="rounded=0;whiteSpace=wrap;html=1;" vertex="1" parent="1">
          <mxGeometry x="190" y="700" width="120" height="60" as="geometry" />
        </mxCell>
        <mxCell id="gV0S6WBN9MCvmeuUqXlB-24" value="" style="endArrow=none;html=1;rounded=0;" edge="1" parent="1" target="gV0S6WBN9MCvmeuUqXlB-25">
          <mxGeometry width="50" height="50" relative="1" as="geometry">
            <mxPoint x="200" y="760" as="sourcePoint" />
            <mxPoint x="140" y="850" as="targetPoint" />
          </mxGeometry>
        </mxCell>
        <mxCell id="gV0S6WBN9MCvmeuUqXlB-25" value="DName" style="ellipse;whiteSpace=wrap;html=1;" vertex="1" parent="1">
          <mxGeometry x="80" y="810" width="80" height="60" as="geometry" />
        </mxCell>
        <mxCell id="gV0S6WBN9MCvmeuUqXlB-26" value="" style="endArrow=none;html=1;rounded=0;exitX=0.427;exitY=1.084;exitDx=0;exitDy=0;exitPerimeter=0;" edge="1" parent="1" source="gV0S6WBN9MCvmeuUqXlB-23" target="gV0S6WBN9MCvmeuUqXlB-27">
          <mxGeometry width="50" height="50" relative="1" as="geometry">
            <mxPoint x="320" y="760" as="sourcePoint" />
            <mxPoint x="250" y="870" as="targetPoint" />
          </mxGeometry>
        </mxCell>
        <mxCell id="gV0S6WBN9MCvmeuUqXlB-27" value="DNumber" style="ellipse;whiteSpace=wrap;html=1;" vertex="1" parent="1">
          <mxGeometry x="160" y="840" width="100" height="50" as="geometry" />
        </mxCell>
        <mxCell id="gV0S6WBN9MCvmeuUqXlB-28" value="" style="endArrow=none;html=1;rounded=0;exitX=0.583;exitY=1;exitDx=0;exitDy=0;exitPerimeter=0;" edge="1" parent="1" source="gV0S6WBN9MCvmeuUqXlB-23" target="gV0S6WBN9MCvmeuUqXlB-29">
          <mxGeometry width="50" height="50" relative="1" as="geometry">
            <mxPoint x="320" y="760" as="sourcePoint" />
            <mxPoint x="320" y="840" as="targetPoint" />
          </mxGeometry>
        </mxCell>
        <mxCell id="gV0S6WBN9MCvmeuUqXlB-29" value="&lt;u data--h-bstatus=&quot;0OBSERVED&quot;&gt;ID&lt;/u&gt;" style="ellipse;whiteSpace=wrap;html=1;" vertex="1" parent="1">
          <mxGeometry x="280" y="860" width="70" height="30" as="geometry" />
        </mxCell>
        <mxCell id="gV0S6WBN9MCvmeuUqXlB-30" value="" style="endArrow=none;html=1;rounded=0;exitX=0.867;exitY=1.053;exitDx=0;exitDy=0;exitPerimeter=0;entryX=0;entryY=0;entryDx=0;entryDy=0;" edge="1" parent="1" source="gV0S6WBN9MCvmeuUqXlB-23" target="gV0S6WBN9MCvmeuUqXlB-31">
          <mxGeometry width="50" height="50" relative="1" as="geometry">
            <mxPoint x="320" y="760" as="sourcePoint" />
            <mxPoint x="330" y="820" as="targetPoint" />
          </mxGeometry>
        </mxCell>
        <mxCell id="gV0S6WBN9MCvmeuUqXlB-31" value="Location" style="ellipse;whiteSpace=wrap;html=1;" vertex="1" parent="1">
          <mxGeometry x="310" y="770" width="100" height="80" as="geometry" />
        </mxCell>
        <mxCell id="gV0S6WBN9MCvmeuUqXlB-38" value="Departments" style="rounded=0;whiteSpace=wrap;html=1;" vertex="1" parent="1">
          <mxGeometry x="620" y="490" width="120" height="60" as="geometry" />
        </mxCell>
        <mxCell id="gV0S6WBN9MCvmeuUqXlB-39" value="" style="endArrow=none;html=1;rounded=0;entryX=0.413;entryY=0.02;entryDx=0;entryDy=0;entryPerimeter=0;exitX=0.648;exitY=0.025;exitDx=0;exitDy=0;exitPerimeter=0;" edge="1" source="gV0S6WBN9MCvmeuUqXlB-40" target="gV0S6WBN9MCvmeuUqXlB-38" parent="1">
          <mxGeometry width="50" height="50" relative="1" as="geometry">
            <mxPoint x="660" y="890" as="sourcePoint" />
            <mxPoint x="630" y="780" as="targetPoint" />
          </mxGeometry>
        </mxCell>
        <mxCell id="gV0S6WBN9MCvmeuUqXlB-40" value="&lt;u&gt;DPName &lt;/u&gt;(Partial Key)" style="ellipse;whiteSpace=wrap;html=1;" vertex="1" parent="1">
          <mxGeometry x="580" y="360" width="120" height="80" as="geometry" />
        </mxCell>
        <mxCell id="gV0S6WBN9MCvmeuUqXlB-41" value="" style="endArrow=none;html=1;rounded=0;entryX=0.844;entryY=0.02;entryDx=0;entryDy=0;entryPerimeter=0;" edge="1" target="gV0S6WBN9MCvmeuUqXlB-38" parent="1" source="gV0S6WBN9MCvmeuUqXlB-42">
          <mxGeometry width="50" height="50" relative="1" as="geometry">
            <mxPoint x="720" y="660" as="sourcePoint" />
            <mxPoint x="660" y="640" as="targetPoint" />
            <Array as="points" />
          </mxGeometry>
        </mxCell>
        <mxCell id="gV0S6WBN9MCvmeuUqXlB-42" value="&lt;u data--h-bstatus=&quot;0OBSERVED&quot;&gt;Gender&lt;/u&gt;" style="ellipse;whiteSpace=wrap;html=1;" vertex="1" parent="1">
          <mxGeometry x="710" y="360" width="120" height="80" as="geometry" />
        </mxCell>
        <mxCell id="gV0S6WBN9MCvmeuUqXlB-43" value="" style="endArrow=none;html=1;rounded=0;exitX=1;exitY=1;exitDx=0;exitDy=0;" edge="1" source="gV0S6WBN9MCvmeuUqXlB-38" target="gV0S6WBN9MCvmeuUqXlB-44" parent="1">
          <mxGeometry width="50" height="50" relative="1" as="geometry">
            <mxPoint x="610" y="690" as="sourcePoint" />
            <mxPoint x="810" y="850" as="targetPoint" />
          </mxGeometry>
        </mxCell>
        <mxCell id="gV0S6WBN9MCvmeuUqXlB-44" value="" style="ellipse;whiteSpace=wrap;html=1;" vertex="1" parent="1">
          <mxGeometry x="790" y="550" width="150" height="90" as="geometry" />
        </mxCell>
        <mxCell id="gV0S6WBN9MCvmeuUqXlB-45" value="Birth-Date" style="ellipse;whiteSpace=wrap;html=1;" vertex="1" parent="1">
          <mxGeometry x="800" y="556.25" width="125" height="77.5" as="geometry" />
        </mxCell>
        <mxCell id="gV0S6WBN9MCvmeuUqXlB-46" value="" style="endArrow=none;html=1;rounded=0;exitX=0.803;exitY=0.089;exitDx=0;exitDy=0;exitPerimeter=0;" edge="1" parent="1" source="gV0S6WBN9MCvmeuUqXlB-44" target="gV0S6WBN9MCvmeuUqXlB-47">
          <mxGeometry width="50" height="50" relative="1" as="geometry">
            <mxPoint x="800" y="570" as="sourcePoint" />
            <mxPoint x="970" y="430" as="targetPoint" />
          </mxGeometry>
        </mxCell>
        <mxCell id="gV0S6WBN9MCvmeuUqXlB-47" value="year" style="ellipse;whiteSpace=wrap;html=1;" vertex="1" parent="1">
          <mxGeometry x="910" y="410" width="80" height="60" as="geometry" />
        </mxCell>
        <mxCell id="gV0S6WBN9MCvmeuUqXlB-48" value="" style="endArrow=none;html=1;rounded=0;entryX=1;entryY=0.5;entryDx=0;entryDy=0;exitX=0.286;exitY=0.968;exitDx=0;exitDy=0;exitPerimeter=0;" edge="1" parent="1" source="gV0S6WBN9MCvmeuUqXlB-50" target="gV0S6WBN9MCvmeuUqXlB-44">
          <mxGeometry width="50" height="50" relative="1" as="geometry">
            <mxPoint x="1110" y="520" as="sourcePoint" />
            <mxPoint x="850" y="520" as="targetPoint" />
          </mxGeometry>
        </mxCell>
        <mxCell id="gV0S6WBN9MCvmeuUqXlB-50" value="month" style="ellipse;whiteSpace=wrap;html=1;" vertex="1" parent="1">
          <mxGeometry x="990" y="490" width="120" height="80" as="geometry" />
        </mxCell>
        <mxCell id="gV0S6WBN9MCvmeuUqXlB-51" value="" style="endArrow=none;html=1;rounded=0;exitX=0.916;exitY=0.905;exitDx=0;exitDy=0;exitPerimeter=0;" edge="1" parent="1" source="gV0S6WBN9MCvmeuUqXlB-44" target="gV0S6WBN9MCvmeuUqXlB-52">
          <mxGeometry width="50" height="50" relative="1" as="geometry">
            <mxPoint x="800" y="570" as="sourcePoint" />
            <mxPoint x="1030" y="720" as="targetPoint" />
          </mxGeometry>
        </mxCell>
        <mxCell id="gV0S6WBN9MCvmeuUqXlB-52" value="day" style="ellipse;whiteSpace=wrap;html=1;" vertex="1" parent="1">
          <mxGeometry x="970" y="680" width="120" height="80" as="geometry" />
        </mxCell>
        <mxCell id="gV0S6WBN9MCvmeuUqXlB-53" value="Assigend" style="rhombus;whiteSpace=wrap;html=1;" vertex="1" parent="1">
          <mxGeometry x="410" y="700" width="90" height="80" as="geometry" />
        </mxCell>
        <mxCell id="gV0S6WBN9MCvmeuUqXlB-57" value="" style="endArrow=none;html=1;rounded=0;exitX=1;exitY=0.5;exitDx=0;exitDy=0;entryX=0;entryY=0.5;entryDx=0;entryDy=0;" edge="1" parent="1" source="gV0S6WBN9MCvmeuUqXlB-23" target="gV0S6WBN9MCvmeuUqXlB-53">
          <mxGeometry width="50" height="50" relative="1" as="geometry">
            <mxPoint x="460" y="870" as="sourcePoint" />
            <mxPoint x="510" y="820" as="targetPoint" />
          </mxGeometry>
        </mxCell>
        <mxCell id="gV0S6WBN9MCvmeuUqXlB-59" value="" style="endArrow=none;html=1;rounded=0;exitX=1;exitY=0.5;exitDx=0;exitDy=0;" edge="1" parent="1" source="gV0S6WBN9MCvmeuUqXlB-53">
          <mxGeometry width="50" height="50" relative="1" as="geometry">
            <mxPoint x="500" y="740" as="sourcePoint" />
            <mxPoint x="590" y="740" as="targetPoint" />
          </mxGeometry>
        </mxCell>
        <mxCell id="gV0S6WBN9MCvmeuUqXlB-58" value="1" style="text;html=1;align=center;verticalAlign=middle;whiteSpace=wrap;rounded=0;" vertex="1" parent="1">
          <mxGeometry x="560" y="700" width="30" height="30" as="geometry" />
        </mxCell>
        <mxCell id="gV0S6WBN9MCvmeuUqXlB-60" value="M" style="text;html=1;align=center;verticalAlign=middle;whiteSpace=wrap;rounded=0;" vertex="1" parent="1">
          <mxGeometry x="290" y="705" width="60" height="30" as="geometry" />
        </mxCell>
        <mxCell id="gV0S6WBN9MCvmeuUqXlB-65" value="" style="endArrow=none;html=1;rounded=0;entryX=0;entryY=0.5;entryDx=0;entryDy=0;exitX=1;exitY=0.75;exitDx=0;exitDy=0;" edge="1" parent="1" source="gV0S6WBN9MCvmeuUqXlB-23">
          <mxGeometry width="50" height="50" relative="1" as="geometry">
            <mxPoint x="320" y="740" as="sourcePoint" />
            <mxPoint x="420" y="750" as="targetPoint" />
          </mxGeometry>
        </mxCell>
        <mxCell id="gV0S6WBN9MCvmeuUqXlB-66" value="Manage" style="rhombus;whiteSpace=wrap;html=1;" vertex="1" parent="1">
          <mxGeometry x="530" y="590" width="110" height="80" as="geometry" />
        </mxCell>
        <mxCell id="gV0S6WBN9MCvmeuUqXlB-68" value="" style="endArrow=none;html=1;rounded=0;exitX=1;exitY=0.5;exitDx=0;exitDy=0;entryX=0.5;entryY=0;entryDx=0;entryDy=0;" edge="1" parent="1" source="gV0S6WBN9MCvmeuUqXlB-66" target="gV0S6WBN9MCvmeuUqXlB-15">
          <mxGeometry width="50" height="50" relative="1" as="geometry">
            <mxPoint x="710" y="700" as="sourcePoint" />
            <mxPoint x="650" y="700" as="targetPoint" />
          </mxGeometry>
        </mxCell>
        <mxCell id="gV0S6WBN9MCvmeuUqXlB-69" value="" style="endArrow=none;html=1;rounded=0;exitX=1;exitY=0.75;exitDx=0;exitDy=0;entryX=0.083;entryY=0.473;entryDx=0;entryDy=0;entryPerimeter=0;" edge="1" parent="1" source="gV0S6WBN9MCvmeuUqXlB-1" target="gV0S6WBN9MCvmeuUqXlB-66">
          <mxGeometry width="50" height="50" relative="1" as="geometry">
            <mxPoint x="710" y="700" as="sourcePoint" />
            <mxPoint x="760" y="650" as="targetPoint" />
          </mxGeometry>
        </mxCell>
        <mxCell id="gV0S6WBN9MCvmeuUqXlB-70" value="1" style="text;html=1;align=center;verticalAlign=middle;whiteSpace=wrap;rounded=0;" vertex="1" parent="1">
          <mxGeometry x="475" y="590" width="30" height="30" as="geometry" />
        </mxCell>
        <mxCell id="gV0S6WBN9MCvmeuUqXlB-71" value="M" style="text;html=1;align=center;verticalAlign=middle;whiteSpace=wrap;rounded=0;" vertex="1" parent="1">
          <mxGeometry x="660" y="675" width="20" height="30" as="geometry" />
        </mxCell>
        <mxCell id="gV0S6WBN9MCvmeuUqXlB-72" value="" style="endArrow=none;html=1;rounded=0;exitX=1;exitY=0.5;exitDx=0;exitDy=0;" edge="1" parent="1" source="gV0S6WBN9MCvmeuUqXlB-66" target="gV0S6WBN9MCvmeuUqXlB-73">
          <mxGeometry width="50" height="50" relative="1" as="geometry">
            <mxPoint x="710" y="700" as="sourcePoint" />
            <mxPoint x="760" y="650" as="targetPoint" />
          </mxGeometry>
        </mxCell>
        <mxCell id="gV0S6WBN9MCvmeuUqXlB-73" value="Hiring Date" style="ellipse;whiteSpace=wrap;html=1;" vertex="1" parent="1">
          <mxGeometry x="740" y="670" width="140" height="80" as="geometry" />
        </mxCell>
        <mxCell id="gV0S6WBN9MCvmeuUqXlB-74" value="" style="endArrow=none;html=1;rounded=0;entryX=0.177;entryY=0.438;entryDx=0;entryDy=0;entryPerimeter=0;exitX=1;exitY=0.5;exitDx=0;exitDy=0;" edge="1" parent="1" source="gV0S6WBN9MCvmeuUqXlB-1" target="gV0S6WBN9MCvmeuUqXlB-66">
          <mxGeometry width="50" height="50" relative="1" as="geometry">
            <mxPoint x="530" y="570" as="sourcePoint" />
            <mxPoint x="549" y="638" as="targetPoint" />
            <Array as="points">
              <mxPoint x="520" y="600" />
            </Array>
          </mxGeometry>
        </mxCell>
        <mxCell id="gV0S6WBN9MCvmeuUqXlB-76" value="Work" style="rhombus;whiteSpace=wrap;html=1;" vertex="1" parent="1">
          <mxGeometry x="182.5" y="530" width="80" height="80" as="geometry" />
        </mxCell>
        <mxCell id="gV0S6WBN9MCvmeuUqXlB-77" value="" style="endArrow=none;html=1;rounded=0;exitX=1;exitY=0.5;exitDx=0;exitDy=0;entryX=0;entryY=0.5;entryDx=0;entryDy=0;" edge="1" parent="1" source="gV0S6WBN9MCvmeuUqXlB-76" target="gV0S6WBN9MCvmeuUqXlB-1">
          <mxGeometry width="50" height="50" relative="1" as="geometry">
            <mxPoint x="360" y="640" as="sourcePoint" />
            <mxPoint x="410" y="590" as="targetPoint" />
          </mxGeometry>
        </mxCell>
        <mxCell id="gV0S6WBN9MCvmeuUqXlB-78" value="" style="endArrow=none;html=1;rounded=0;exitX=0.25;exitY=0;exitDx=0;exitDy=0;entryX=0.5;entryY=1;entryDx=0;entryDy=0;" edge="1" parent="1" source="gV0S6WBN9MCvmeuUqXlB-23" target="gV0S6WBN9MCvmeuUqXlB-76">
          <mxGeometry width="50" height="50" relative="1" as="geometry">
            <mxPoint x="360" y="640" as="sourcePoint" />
            <mxPoint x="410" y="590" as="targetPoint" />
          </mxGeometry>
        </mxCell>
        <mxCell id="gV0S6WBN9MCvmeuUqXlB-80" value="M" style="text;html=1;align=center;verticalAlign=middle;whiteSpace=wrap;rounded=0;" vertex="1" parent="1">
          <mxGeometry x="340" y="570" width="20" height="30" as="geometry" />
        </mxCell>
        <mxCell id="gV0S6WBN9MCvmeuUqXlB-81" value="M" style="text;html=1;align=center;verticalAlign=middle;whiteSpace=wrap;rounded=0;" vertex="1" parent="1">
          <mxGeometry x="220" y="670" width="20" height="30" as="geometry" />
        </mxCell>
        <mxCell id="gV0S6WBN9MCvmeuUqXlB-82" value="Working hour" style="ellipse;whiteSpace=wrap;html=1;" vertex="1" parent="1">
          <mxGeometry x="-150" y="510" width="150" height="80" as="geometry" />
        </mxCell>
        <mxCell id="gV0S6WBN9MCvmeuUqXlB-84" value="" style="endArrow=none;html=1;rounded=0;entryX=1;entryY=0.5;entryDx=0;entryDy=0;exitX=0;exitY=0.5;exitDx=0;exitDy=0;" edge="1" parent="1" source="gV0S6WBN9MCvmeuUqXlB-76" target="gV0S6WBN9MCvmeuUqXlB-82">
          <mxGeometry width="50" height="50" relative="1" as="geometry">
            <mxPoint x="360" y="640" as="sourcePoint" />
            <mxPoint x="410" y="590" as="targetPoint" />
          </mxGeometry>
        </mxCell>
      </root>
    </mxGraphModel>
  </diagram>
</mxfile>
